# xmcd
#
# Track frame offsets:
#	150
#	13632
#	26675
#	40895
#	53867
#	71225
#	88407
#	106155
#	122640
#	133997
#	146760
#	164127
#	181877
#	194580
#	214955
#	225500
#	241565
#	254920
#	267512
#
# Disc length: 3766 seconds
#
# Revision: 1
# Processed by: cddbd v1.5.2PL0 Copyright (c) Steve Scherf et al.
# Submitted via: EasyCDDAExtractor 10.2.0.1
#
DISCID=290eb413
DTITLE=Various Artist - Country Solid Gold
DYEAR=1988
DGENRE=Country
TTITLE0=Kenny Rogers - Ruby, Don't Take Your Love to Town
TTITLE1=Ray Stevens - Misty
TTITLE2=Jimmy Buffett - Come Monday
TTITLE3=Don Williams - You're my best friend
TTITLE4=Trio - To know him is to love him
TTITLE5=Gordon Lightfoot - If you could read my mind
TTITLE6=Jerry Jeff Walker - Mr Bojangles
TTITLE7=Cal Smith - Country Bumpkin
TTITLE8=Jon Conlee - Busted
TTITLE9=Patsy Cline - I fall to pieces
TTITLE10=Jack Clement - When I Dream
TTITLE11=Linda Ronstadt - Blue Bayou
TTITLE12=Bill Anderson - Still
TTITLE13=Lee Marvin - Wanderin Star
TTITLE14=Emmylou Harris - Mister Sandman
TTITLE15=Randy Travis - Forever and ever, amen
TTITLE16=Hank Williams Jr - All my rowdy friends are coming over tonight
TTITLE17=Dwight Yoakam - Honky tonk man
TTITLE18=Various Artist - Dueling Banjos
EXTD=A. Krause
EXTT0=
EXTT1=
EXTT2=
EXTT3=
EXTT4=
EXTT5=
EXTT6=
EXTT7=
EXTT8=
EXTT9=
EXTT10=
EXTT11=
EXTT12=
EXTT13=
EXTT14=
EXTT15=
EXTT16=
EXTT17=
EXTT18=
PLAYORDER=
